# xmcd
#
# Track frame offsets:
#	150
#	16339
#	37450
#	51302
#	65005
#	79118
#	96095
#	111918
#	129304
#	143377
#	163510
#	182495
#	195977
#	214635
#	233585
#	247400
#	262367
#	278451
#	292262
#	303097
#	321413
#
# Disc length: 4446 seconds
#
# Revision: 0
# Processed by: cddbd v1.5.1PL0 Copyright (c) Steve Scherf et al.
# Submitted via: audiograbber 1.80
#
DISCID=37115c15
DTITLE=Eduardo Costa - Acústico Vol 3
DYEAR=1900
DGENRE=
TTITLE0=Quando o Amor é pra Valer
TTITLE1=Coração Aberto
TTITLE2=Vem cuidar de Mim
TTITLE3=Só você me faz Feliz
TTITLE4=O que é que a gente não faz por amor
TTITLE5=Dois corações e uma história
TTITLE6=Sonhei com você
TTITLE7=Solidão
TTITLE8=Você decide
TTITLE9=Rasgando as Madrugadas
TTITLE10=Desculpe mas eu vou chorar
TTITLE11=Eu sem você
TTITLE12=Feito eu
TTITLE13=Cheiro de maça
TTITLE14=Eu quero este amor
TTITLE15=Página de amigos
TTITLE16=Princesa
TTITLE17=Coração quer te encontrar
TTITLE18=Eu duvido
TTITLE19=Você vai ver
TTITLE20=Tô caindo fora
EXTD=
EXTT0=
EXTT1=
EXTT2=
EXTT3=
EXTT4=
EXTT5=
EXTT6=
EXTT7=
EXTT8=
EXTT9=
EXTT10=
EXTT11=
EXTT12=
EXTT13=
EXTT14=
EXTT15=
EXTT16=
EXTT17=
EXTT18=
EXTT19=
EXTT20=
PLAYORDER=
